<?xml version="1.0" encoding="utf-8"?>
<svg version="1.1" xmlns="http://www.w3.org/2000/svg" viewBox="0 0 32 32" xml:space="preserve">
  <defs>
    <radialGradient id="irisGlow" cx="50%" cy="45%" r="60%">
      <stop offset="0%" stop-color="#ff5f5f" />
      <stop offset="45%" stop-color="#d91f26" />
      <stop offset="100%" stop-color="#5a0005" />
    </radialGradient>
    <linearGradient id="lidShadow" x1="0%" y1="0%" x2="100%" y2="100%">
      <stop offset="0%" stop-color="#141414" />
      <stop offset="100%" stop-color="#020202" />
    </linearGradient>
  </defs>

  <rect width="32" height="32" rx="8" fill="#050505" />
  <path
    d="M4.5 16C7.2 10.3 11.4 7.4 16 7.4c4.6 0 8.8 2.9 11.5 8.6-2.7 5.7-6.9 8.6-11.5 8.6-4.6 0-8.8-2.9-11.5-8.6Z"
    fill="url(#lidShadow)"
    stroke="#b11b21"
    stroke-width="0.9"
    stroke-linejoin="round"
  />
  <path
    d="M6.7 16c2.1-3.8 5.3-6 9.3-6s7.2 2.2 9.3 6c-2.1 3.8-5.3 6-9.3 6s-7.2-2.2-9.3-6Z"
    fill="#0d0d0d"
  />
  <circle cx="16" cy="16" r="5.2" fill="url(#irisGlow)" />
  <circle cx="16" cy="16" r="2.1" fill="#050505" />
  <circle cx="17.1" cy="14.8" r="0.9" fill="#ffd6d6" opacity="0.95" />
  <path d="M2.5 16h4.1" stroke="#f7f0f0" stroke-width="1.1" stroke-linecap="round" opacity="0.85" />
  <path d="M25.4 16h4.1" stroke="#f7f0f0" stroke-width="1.1" stroke-linecap="round" opacity="0.85" />
  <path d="M10.2 10.1C12.1 8.8 13.9 8.2 16 8.2s3.9 0.6 5.8 1.9" fill="none" stroke="#ff8a8a" stroke-width="0.8" stroke-linecap="round" opacity="0.55" />
  <path d="M10.2 21.9C12.1 23.2 13.9 23.8 16 23.8s3.9-0.6 5.8-1.9" fill="none" stroke="#ff8a8a" stroke-width="0.8" stroke-linecap="round" opacity="0.55" />
</svg>
